<?xml version="1.0" encoding="utf-8"?>
<!-- Generator: Adobe Illustrator 28.5.0, SVG Export Plug-In . SVG Version: 9.03 Build 54727)  -->
<!DOCTYPE svg PUBLIC "-//W3C//DTD SVG 1.1//EN" "http://www.w3.org/Graphics/SVG/1.1/DTD/svg11.dtd" [
	<!ENTITY st0 "fill:#2EAC65;">
	<!ENTITY st1 "fill:#FFFFFF;">
	<!ENTITY st2 "fill:#5A5959;">
	<!ENTITY st3 "fill:#717070;">
	<!ENTITY st4 "fill:#696868;">
	<!ENTITY st5 "fill:#898888;">
	<!ENTITY st6 "fill:#959594;">
	<!ENTITY st7 "fill:#7C7B7B;">
	<!ENTITY st8 "fill:#A0A09F;">
	<!ENTITY st9 "fill:#D0D0D0;">
	<!ENTITY st10 "fill:#C6C6C6;">
	<!ENTITY st11 "fill:#DCDCDC;">
	<!ENTITY st12 "fill:#AEADAD;">
	<!ENTITY st13 "fill:#BBBABA;">
	<!ENTITY st14 "fill:#E7E7E7;">
]>
<svg version="1.1" xmlns="http://www.w3.org/2000/svg" xmlns:xlink="http://www.w3.org/1999/xlink" x="0px" y="0px" width="590.8px"
	 height="589.4px" viewBox="0 0 590.8 589.4" style="enable-background:new 0 0 590.8 589.4;" xml:space="preserve">
<g id="Layer_3">
	<g id="gray-area-logo">
		<path id="gray-area-logo-loop" style="&st0;" d="M294.5,16.4c-153.5,0-278,124.5-278,278s124.5,278,278,278s278-124.5,278-278
			S448,16.4,294.5,16.4z M210.9,54.3l6.5-2.2l31,39.2l-4.9,1.6l-9.9-12.5l-19,6.3l-0.4,15.9l-4.9,1.6L210.9,54.3z M180.6,66.5
			l2.3,3.9l-22.8,13.2l8,13.8L189.5,85l2.3,3.9l-21.5,12.4l8.7,15.1l23.8-13.8l2.3,3.9L177,122.9l-23.5-40.7L180.6,66.5z
			 M127.8,102.3c1.7-1.5,3.5-2.6,5.4-3.1c1.9-0.6,3.6-0.8,5.4-0.6c1.7,0.2,3.4,0.6,4.9,1.4c1.5,0.8,2.8,1.8,3.9,3
			c0.8,0.9,1.4,1.8,2,2.9c0.5,1,0.9,2.1,1.2,3.2c0.2,1.1,0.3,2.3,0.3,3.4c-0.1,1.2-0.3,2.3-0.7,3.5c1.1-0.6,2.2-0.9,3.2-0.9
			c1,0,1.9,0.1,2.8,0.5c0.9,0.3,1.7,0.8,2.5,1.5c0.8,0.6,1.5,1.3,2.2,2.1l4.7,5.3c0.7,0.8,1.4,1.4,2.3,1.9c0.8,0.5,1.7,1,2.5,1.3
			l-4.1,3.6c-0.4-0.1-0.8-0.3-1.2-0.6c-0.4-0.3-0.8-0.6-1.2-0.9c-0.4-0.3-0.7-0.7-1-1c-0.3-0.3-0.6-0.6-0.8-0.9l-4.9-5.6
			c-0.6-0.7-1.3-1.2-2.1-1.7s-1.7-0.7-2.7-0.8c-1-0.1-2,0.1-3.1,0.5c-1.1,0.4-2.3,1.1-3.4,2.2l-10.7,9.4l13.3,15.1l-3.7,3.3
			l-31.1-35.3L127.8,102.3z M91.7,140.5l47.9,14.3l-3.1,4.2l-15.2-4.6l-11.9,16l8.8,13.3l-3.1,4.1L87.5,146L91.7,140.5z M39.2,289.6
			c0-2.3,0.5-4.3,1.3-6.1c0.8-1.7,1.9-3.2,3.2-4.4c1.3-1.2,2.7-2.1,4.3-2.7c1.6-0.6,3.2-0.9,4.8-0.8c1.2,0,2.3,0.2,3.4,0.5
			c1.1,0.3,2.2,0.7,3.2,1.3c1,0.6,1.9,1.3,2.7,2.1c0.8,0.8,1.5,1.8,2.1,2.9c0.3-1.2,0.8-2.2,1.5-3c0.7-0.8,1.4-1.4,2.3-1.8
			s1.8-0.7,2.8-0.9c1-0.2,2-0.2,3-0.2l7.1,0.1c1,0,2-0.1,3-0.4c1-0.3,1.8-0.6,2.6-1l-0.1,5.4c-0.4,0.2-0.8,0.4-1.2,0.5
			c-0.5,0.1-0.9,0.2-1.4,0.3c-0.5,0.1-1,0.1-1.4,0.1c-0.5,0-0.9,0-1.2,0l-7.5-0.1c-0.9,0-1.8,0.1-2.7,0.4c-0.9,0.3-1.7,0.8-2.4,1.4
			c-0.7,0.7-1.3,1.6-1.7,2.7c-0.4,1.1-0.7,2.4-0.7,4l-0.2,14.2l20.1,0.3l-0.1,5l-47-0.8L39.2,289.6z M91.7,347.2
			c-0.7,2.8-2,5.4-3.8,7.6c-1.8,2.2-4.1,4.2-6.8,5.7c-2.8,1.6-5.9,2.7-9.3,3.4c-2,0.4-4,0.6-6.1,0.6c-2.1,0-4.1-0.2-6-0.7
			c-1.9-0.4-3.8-1.1-5.6-2c-1.8-0.9-3.4-1.9-4.8-3.2c-1.4-1.3-2.6-2.8-3.7-4.5c-1-1.7-1.8-3.7-2.2-5.8c-0.6-2.7-0.7-5.2-0.4-7.5
			c0.3-2.3,0.9-4.4,1.8-6.2c0.9-1.9,2.2-3.5,3.7-4.9c1.5-1.4,3.3-2.7,5.3-3.7l1.1,5.2c-3.2,1.9-5.4,4.2-6.5,6.9s-1.4,5.8-0.6,9.5
			c0.5,2.3,1.4,4.3,2.9,6s3.2,3.1,5.3,4.1c2.1,1,4.4,1.7,7,1.9c2.6,0.3,5.2,0.1,7.9-0.4c3.2-0.7,5.9-1.7,8.2-3s4.1-2.9,5.5-4.7
			c1.4-1.8,2.3-3.7,2.8-5.8c0.5-2.1,0.5-4.2,0.1-6.3c-0.3-1.3-0.7-2.4-1.4-3.6c-0.7-1.1-1.5-2.2-2.5-3.1c-1-1-2.1-1.8-3.3-2.5
			c-1.2-0.7-2.5-1.3-3.9-1.8c-1.4-0.5-2.8-0.7-4.2-0.9s-2.9-0.1-4.3,0.2l2.9,14.3l-4.3,0.9l-3.9-18.9l24.1-4.9l0.6,3l-7.9,3.1
			c1.3,0.5,2.7,1.2,4,2.1c1.3,0.9,2.6,1.9,3.7,3.1c1.2,1.2,2.1,2.4,3,3.8c0.8,1.4,1.4,2.8,1.7,4.2C92.4,341.4,92.4,344.4,91.7,347.2
			z M94.7,234.4l-15.8,2l-4.4,19.5l13.4,8.6l-1.1,5l-42.1-27.1l1.5-6.7l49.6-6.3L94.7,234.4z M100.5,219.6L83,212.5l-32.4,5l2.2-5.3
			l27.1-3.6L63,187l2.2-5.3l19.7,26.2l17.5,7.1L100.5,219.6z M294.2,485.9c-105.4,0-190.9-85.5-190.9-190.9s85.5-190.9,190.9-190.9
			S485.1,189.6,485.1,295S399.7,485.9,294.2,485.9z"/>
		<g id="gray-area-logo-bits">
			<path style="&st0;" d="M143.4,106.2c-0.8-0.9-1.8-1.7-2.8-2.2c-1.1-0.5-2.1-0.8-3.3-0.8c-1.1,0-2.3,0.1-3.4,0.5
				c-1.1,0.4-2.2,1.1-3.2,1.9l-10.7,9.4l11.8,13.4l10.7-9.4c0.9-0.8,1.6-1.8,2.2-2.8c0.5-1.1,0.8-2.2,0.9-3.4
				c0.1-1.2-0.1-2.3-0.4-3.5C144.9,108.2,144.3,107.1,143.4,106.2z"/>
			<path style="&st0;" d="M59.1,283.5c-0.8-0.9-1.8-1.5-2.9-2.1c-1.1-0.5-2.3-0.8-3.6-0.8c-1.3,0-2.4,0.2-3.5,0.6
				c-1.1,0.4-2,1.1-2.8,1.9s-1.4,1.8-1.9,2.9c-0.5,1.1-0.7,2.3-0.7,3.6l-0.2,14.2l17.9,0.3l0.2-14.2c0-1.2-0.2-2.4-0.7-3.5
				C60.6,285.3,59.9,284.3,59.1,283.5z"/>
			<polygon style="&st0;" points="215.6,57.7 214.8,82.8 231.2,77.4 			"/>
			<polygon style="&st0;" points="107.1,167.1 117.4,153.3 93.3,146.1 			"/>
			<polygon style="&st0;" points="71.1,253.7 74.9,236.9 50,240.1 			"/>
		</g>
		<path id="gray-area-text-line" style="&st1;" d="M463.9,127.5c-45-45-104.8-69.7-168.4-69.7c-13.8,0-26.9,1.1-40.2,3.4l0,0
			c-1.9,0.3-3.4,1.9-3.4,3.9c0,2.2,1.8,4,4,4l0,0c0,0,26.2-3.4,39.6-3.4c61.5,0,119.2,23.9,162.7,67.4s67.4,101.2,67.4,162.7
			s-23.9,119.2-67.4,162.7S357,526,295.6,526S176.3,502,132.9,458.6c-22.9-22.9-40.3-49.7-51.7-78.9c0,0,0,0,0,0
			c-0.6-1.4-2-2.4-3.7-2.4c-2.2,0-4,1.8-4,4c0,0.7,0.2,1.3,0.5,1.8c11.8,30.1,29.7,57.6,53.3,81.2c45,45,104.8,69.7,168.4,69.7
			c63.6,0,123.4-24.8,168.4-69.7c45-45,69.7-104.8,69.7-168.4S508.9,172.5,463.9,127.5z"/>
	</g>
</g>
<g id="gray-area-polly">
	<polygon style="&st2;" points="139.9,195.8 194.7,141 181.8,182.1 	"/>
	<polygon style="&st3;" points="229.9,166.1 187.8,180.7 201.3,136.6 	"/>
	<polygon style="&st4;" points="226,172.3 186.1,186 171.9,226.2 	"/>
	<polygon style="&st4;" points="179.6,187.8 136.4,202.9 164.5,230.6 	"/>
	<polygon style="&st3;" points="162.3,235.5 132.8,205.3 110.9,287.1 	"/>
	<polygon style="&st5;" points="163.2,242.1 110.5,294.2 163.2,349.4 	"/>
	<polygon style="&st6;" points="168.5,241.5 222.1,295.1 169.2,348.5 	"/>
	<polygon style="&st7;" points="171.4,237.3 228.2,232.8 223.5,289.1 	"/>
	<polygon style="&st3;" points="172.7,232.2 228,228.8 231.9,173 	"/>
	<polygon style="&st4;" points="204,134.2 234.8,163.2 286.3,112.4 	"/>
	<polygon style="&st8;" points="240.4,164.3 294.2,110.9 347,163.9 	"/>
	<polygon style="&st5;" points="301.6,111.3 354.1,163.4 383.1,133.7 	"/>
	<polygon style="&st8;" points="386.9,136.6 358.8,165 400.4,180.3 	"/>
	<polygon style="&st6;" points="393.3,141.3 407.1,182.1 447.9,195.6 	"/>
	<polygon style="&st9;" points="452.1,202.4 424.8,231 409.3,187.6 	"/>
	<polygon style="&st10;" points="417.5,226.8 403.5,185.4 362.3,171.9 	"/>
	<polygon style="&st6;" points="416.6,232.4 361.6,229.3 356.8,172.5 	"/>
	<polygon style="&st8;" points="356.1,228.8 351.7,172.3 300.4,224 	"/>
	<polygon style="&st6;" points="294.2,223.3 347.7,169.9 241,169.2 	"/>
	<polygon style="&st5;" points="288.7,224.2 232.8,228.6 236.6,172.1 	"/>
	<polygon style="&st6;" points="287.8,229.3 232.2,232.8 228.2,288 	"/>
	<polygon style="&st6;" points="291.6,232.2 291.6,293.1 231.1,292.2 	"/>
	<polygon style="&st6;" points="296.9,231.7 296.9,292.7 357.4,292.7 	"/>
	<polygon style="&st10;" points="300.2,228.8 356.1,232.8 360.5,289.4 	"/>
	<polygon style="&st11;" points="360.3,232.6 417.3,237.5 365.8,288.9 	"/>
	<polygon style="&st12;" points="427,235.7 455.6,206.7 477.1,284.9 	"/>
	<polygon style="&st13;" points="478.2,294.7 424.8,241 425.3,348.3 	"/>
	<polygon style="&st10;" points="420.4,241.2 366.1,295 420.4,349 	"/>
	<polygon style="&st11;" points="426.4,354.5 477.6,303.3 456.3,382.9 	"/>
	<polygon style="&st14;" points="451.2,386.7 424.2,359.2 410,401.7 	"/>
	<polygon style="&st11;" points="447.9,394.9 394.7,449 407.7,408.2 	"/>
	<polygon style="&st9;" points="400.7,411.3 359.6,424.4 386.2,453.6 	"/>
	<polygon style="&st11;" points="403.8,404.4 363.4,418.4 417.3,363.6 	"/>
	<polygon style="&st9;" points="416.2,357.6 360.7,361.6 356.8,416.8 	"/>
	<polygon style="&st11;" points="416.8,352.5 361,356.7 365,300.2 	"/>
	<polygon style="&st10;" points="355.9,357 359.9,302.2 300.9,361 	"/>
	<polygon style="&st13;" points="355.9,361.8 299.4,365.8 351,419 	"/>
	<polygon style="&st14;" points="354.3,427.5 382.5,455.6 303.3,478.9 	"/>
	<polygon style="&st13;" points="348.1,425.9 294.9,480 239.7,425.5 	"/>
	<polygon style="&st10;" points="347.7,421 241,421 294.2,367.4 	"/>
	<polygon style="&st11;" points="289.5,365.9 238.1,417.5 233.3,361.8 	"/>
	<polygon style="&st10;" points="291.8,357.4 291.8,297.3 230.2,297.3 	"/>
	<path style="&st11;" d="M297.1,298h58.3l-58.5,60.7C296.9,358.7,296.7,298.4,297.1,298z"/>
	<polygon style="&st8;" points="228.6,301.1 288.4,361 233.3,358.1 	"/>
	<polygon style="&st12;" points="223.7,300.2 228.2,356.7 171.2,352.8 	"/>
	<polygon style="&st7;" points="111.6,303.3 162.9,354.6 133.5,383.8 	"/>
	<polygon style="&st12;" points="164.5,359.2 136.8,387.1 179.4,402.6 	"/>
	<polygon style="&st8;" points="170.8,363.4 185.2,403.7 225.1,417.3 	"/>
	<polygon style="&st10;" points="171.9,357 227.5,361.4 231.7,416.4 	"/>
	<polygon style="&st10;" points="140.8,394.9 194.5,448.3 181,407.5 	"/>
	<polygon style="&st11;" points="186.9,410 201.6,453 229.9,424.6 	"/>
	<polygon style="&st9;" points="234.6,427.2 206.2,456.1 286.3,478.7 	"/>
</g>
</svg>
